<svg xmlns="http://www.w3.org/2000/svg" xmlns:xlink="http://www.w3.org/1999/xlink" width="53" height="53" viewBox="0 0 53 53">
    <defs>
        <path id="a" d="M0 0h26v23H0z"/>
    </defs>
    <g fill="none" fill-rule="evenodd">
        <g transform="translate(0 30)">
            <mask id="b" fill="#fff">
                <use xlink:href="#a"/>
            </mask>
            <path fill="#B52543" d="M1.132 23H.546A.54.54 0 0 1 0 22.466v-5.332c0-3.662 1.645-7.108 4.514-9.456 1.068-.872 2.39-1.584 3.933-2.114l7.963-2.736a.533.533 0 0 0 .364-.503V.82c0-.278.143-.537.381-.689a.86.86 0 0 1 .799-.061l7.224 3.144c.5.218.822.704.822 1.24v1.582a.54.54 0 0 1-.545.534h-.587a.54.54 0 0 1-.546-.534v-1.05A.533.533 0 0 0 24 4.5l-4.781-2.08a.544.544 0 0 0-.767.487c0 .576-.37 1.088-.925 1.279L9.002 7.114c-1.352.466-2.5 1.08-3.412 1.825-2.486 2.034-3.913 5.021-3.913 8.195v5.332a.54.54 0 0 1-.545.534" mask="url(#b)"/>
        </g>
        <path fill="#B52543" d="M16.72 10.286h19.56l-.682-7.814c-1.606-.219-5.892-.758-9.098-.758-3.207 0-7.493.54-9.098.758l-.681 7.814zM37.179 12H15.821a.806.806 0 0 1-.606-.279.887.887 0 0 1-.212-.656l.822-9.428a.843.843 0 0 1 .702-.771C16.764.83 22.382 0 26.5 0s9.736.83 9.974.866a.842.842 0 0 1 .701.771l.822 9.428a.883.883 0 0 1-.212.656.807.807 0 0 1-.607.279zM29 45.5a1.5 1.5 0 1 1-3.001-.001A1.5 1.5 0 0 1 29 45.5M29 51.5a1.5 1.5 0 1 1-3.001-.001A1.5 1.5 0 0 1 29 51.5M42.2 49h-6.4c-.442 0-.8-.447-.8-1 0-.553.358-1 .8-1h6.4c.442 0 .8.447.8 1 0 .553-.358 1-.8 1M26.5 30C21.181 30 15 25.05 15 18.667V13.81c0-.448.367-.81.821-.81.455 0 .822.362.822.81v4.857c0 5.38 5.392 9.714 9.857 9.714 4.465 0 9.857-4.333 9.857-9.714V13.81c0-.448.367-.81.822-.81.454 0 .821.362.821.81v4.857C38 25.05 31.819 30 26.5 30"/>
        <path fill="#B52543" d="M20.805 53a.813.813 0 0 1-.805-.821v-9.857c0-.3.161-.577.42-.722l8.434-4.695v-2.798c0-.31.172-.596.445-.735l6.439-3.285a.79.79 0 0 1 .782.036c.238.15.382.414.382.699v1.882l7.992 2.86c1.48.53 2.75 1.242 3.773 2.114C51.42 40.026 53 43.472 53 47.134v4.223c0 .454-.36.822-.805.822a.813.813 0 0 1-.805-.822v-4.223c0-3.174-1.368-6.161-3.755-8.195-.874-.745-1.976-1.359-3.274-1.824l-8.53-3.054a.82.82 0 0 1-.538-.775v-1.135l-4.83 2.464v2.778c0 .3-.16.577-.419.721L21.61 42.81v9.37c0 .454-.36.821-.805.821"/>
    </g>
</svg>
