<svg xmlns="http://www.w3.org/2000/svg" width="54" height="54" viewBox="0 0 54 54">
    <g fill="none" fill-rule="evenodd" stroke="#B52543" stroke-linecap="round" stroke-linejoin="round" stroke-width="1.44">
        <path d="M43.632 34c3.02-.106 8.957-1.607 9.368-5H1c.413 3.393 6.35 4.894 9.368 5h33.264zM5.01 28c-.002-.112-.007-.226-.007-.338-.001-.11-.003-.226-.003-.34 0-27.104 44-27.088 44 0 0 .114-.003.23-.003.34 0 .112-.005.226-.009.338M41 49l-16 4"/>
        <path d="M36.598 48c.66-1.97.612-3.588 3.095-7.572.812-1.308 3.292-3.75 3.797-4.95 2.314-3.11-3.903-2.24-5.489 0-.863 1.223-1.177 2.203-2.358 2.832-3.636 1.936-3.927-.687-7.39-4.225-2.256-2.303-6.609-.485-4.84 1.245M27 39l-4.431-4.106c-2.352-2.178-5.988.1-3.992 1.78"/>
        <path d="M23.444 40.36l-4.793-3.88-1.625-1.498c-2.845-2.62-6.045.521-2.38 3.377l6.277 4.89c.632.493 8.214 5.547 8.075 8.751M26 11c8.129.001 16.259 4.335 18 13M27 1a2 2 0 1 1 0 4.001A2 2 0 0 1 27 1z"/>
    </g>
</svg>
