<svg xmlns="http://www.w3.org/2000/svg" xmlns:xlink="http://www.w3.org/1999/xlink" width="52" height="52" viewBox="0 0 52 52">
    <defs>
        <path id="a" d="M0 .72H51.49V52H0z"/>
    </defs>
    <g fill="none" fill-rule="evenodd">
        <path fill="#B52543" d="M3.059 33.902c-.174.506.05 1.1.5 1.33a.774.774 0 0 0 .687.015.936.936 0 0 0-.198.336c-.173.504.048 1.1.499 1.327.45.23.956.005 1.13-.5a1.147 1.147 0 0 0-.182-1.066c.49.316.992.715 1.083 1.062l.21-.611.212-.611c-.264.16-.83.018-1.35-.177.31-.023.593-.238.714-.59.174-.504-.049-1.099-.5-1.328-.45-.228-.955-.004-1.13.502a1.066 1.066 0 0 0-.058.376 1.034 1.034 0 0 0-.486-.566c-.45-.228-.956-.005-1.131.5"/>
        <g>
            <mask id="b" fill="#fff">
                <use xlink:href="#a"/>
            </mask>
            <path fill="#B52543" d="M50.14 50.21a.605.605 0 0 1-.611.595l-25.615-.087a.604.604 0 0 1-.607-.6l.128-35.844a.605.605 0 0 1 .612-.597l25.614.088c.336.002.609.27.608.6L50.14 50.21zM22.216 14.27l-.09 25.22-11.401-27.23a.594.594 0 0 1 .333-.78l23.698-9.522a.615.615 0 0 1 .796.327l4.292 10.252-15.792-.055c-1.012-.003-1.832.796-1.836 1.788zm-.109 30.346L1.595 36.211a.596.596 0 0 1-.328-.783l3.742-8.762 17.102 16.87-.005 1.08zM3.084 23.071a.59.59 0 0 1 .003-.844l7.455-7.253 11.023 26.327-18.48-18.23zm46.581-10.5l-8.5-.03-4.486-10.709C36.297.916 35.228.479 34.293.854l-23.7 9.52a1.78 1.78 0 0 0-.998 2.339l.446 1.065-7.814 7.6a1.767 1.767 0 0 0-.008 2.536l1.86 1.835-3.936 9.219c-.391.913.05 1.963.981 2.345l20.978 8.596-.015 4.204c-.003.992.812 1.796 1.823 1.8L49.524 52c1.01.004 1.832-.796 1.836-1.786l.129-35.845c.003-.99-.814-1.795-1.824-1.798z" mask="url(#b)"/>
        </g>
        <path fill="#B52543" d="M37.037 25s-1.151 2.719-3.657 5.37c0 0-2.372 2.631-2.38 4.937 0 0-.011 3.583 3.19 3.672 0 0 1.509.118 2.324-1.123-.139 1.172-.514 2.69-1.523 3.13l1.989.007 1.99.007c-1.007-.447-1.371-1.967-1.501-3.14.806 1.246 2.317 1.139 2.317 1.139 3.203-.067 3.214-3.65 3.214-3.65.008-2.306-2.345-4.953-2.345-4.953C38.169 27.727 37.037 25 37.037 25M27.012 17s-.383.68-1.218 1.342c0 0-.792.658-.794 1.234 0 0-.005.897 1.064.919 0 0 .502.03.775-.281-.047.294-.172.673-.509.783l.664.001.662.002c-.334-.111-.456-.491-.5-.784.269.31.773.284.773.284 1.066-.017 1.071-.913 1.071-.913.002-.577-.781-1.238-.781-1.238-.83-.668-1.207-1.349-1.207-1.349M47.936 45.505s-.502-.03-.775.28c.047-.293.172-.671.509-.78l-.664-.003-.663-.002c.335.111.457.491.5.785-.268-.31-.772-.285-.772-.285-1.066.017-1.071.913-1.071.913-.002.577.781 1.237.781 1.237.83.668 1.207 1.35 1.207 1.35s.383-.68 1.218-1.343c0 0 .79-.658.794-1.234 0 0 .005-.896-1.064-.918M13 14.657L15.275 16 16 13.348 13.733 12zM8.264 21.533c-.978-.982-1.774-.306-1.774-.306-.419.414-.24 1.013-.24 1.013s-.6-.183-1.017.231c0 0-.684.79.293 1.771 0 0 .522.565 1.966.609 0 0 1.256.007 1.508.149-.14-.253-.138-1.504-.138-1.504-.035-1.439-.598-1.963-.598-1.963"/>
    </g>
</svg>
