<svg xmlns="http://www.w3.org/2000/svg" width="54" height="54" viewBox="0 0 54 54">
    <g fill="none" fill-rule="evenodd" stroke="#B52543" stroke-linecap="round" stroke-linejoin="round" stroke-width="1.44">
        <path d="M5 53h33M9 11l5 12M43 9l-8 24M38.432 8.457h11.203L52.6 1.603M15.807 10.307H1.09M16.082 31.413c2.396 0 4.339 1.923 4.339 4.297 0 2.373-1.943 4.296-4.339 4.296-2.397 0-4.338-1.923-4.338-4.296 0-2.374 1.941-4.297 4.338-4.297zM18.405 39.34l5.202 5.672M18.883 45.337h9.664"/>
        <path d="M16.247 22.382c3.888 0 7.417 1.395 10.02 3.661 1.737 1.512 11.82 10.01 12.5 10.628 1.417 1.29 2.293 3.072 2.293 5.043 0 1.968-.876 3.751-2.292 5.041-1.418 1.29-3.377 2.09-5.54 2.09-6.202 0-9.794-.065-16.98-.065-4.004 0-7.63-1.477-10.252-3.867-2.623-2.386-4.246-5.688-4.246-9.331 0-3.645 1.623-6.945 4.246-9.333 2.622-2.39 6.248-3.867 10.251-3.867z"/>
    </g>
</svg>
