<svg xmlns="http://www.w3.org/2000/svg" width="53" height="49" viewBox="0 0 53 49">
    <g fill="none" fill-rule="evenodd" stroke="#B52543" stroke-linecap="round" stroke-linejoin="round" stroke-width="1.44">
        <path d="M42 40l-8.846-24.375C28.863 3.801 21.398.097 15.054 1.18 3.697 3.112 1.105 16.042 4.218 25.144M8 38a3 3 0 1 1 .001 5.999A3 3 0 0 1 8 38zM42.118 40l8.642.369c.355.036.71.083.817.43l.392 1.243a.675.675 0 0 1-.417.838l-15.317 5.088a.649.649 0 0 1-.817-.43l-.392-1.242c-.11-.348.152-.596.418-.839L42.118 40z"/>
        <path d="M1.349 35.633c-.813-3.948-.26-6.523 2.232-9.808C15.384 16.5 34 32.687 34 39.371 34 45.91 21.311 46 16.46 46c-4.85 0-.863-.006-1.283-.02"/>
        <path d="M8.5 33a7.5 7.5 0 1 1-.002 15.002A7.5 7.5 0 0 1 8.5 33z"/>
    </g>
</svg>
