<svg xmlns="http://www.w3.org/2000/svg" xmlns:xlink="http://www.w3.org/1999/xlink" width="120" height="198" viewBox="0 0 120 198">
    <defs>
        <path id="a" d="M0 .982h119.392V232H0z"/>
        <path id="c" d="M0 232h119V1H0z"/>
    </defs>
    <g fill="none" fill-rule="evenodd" transform="translate(0 -34)">
        <mask id="b" fill="#fff">
            <use xlink:href="#a"/>
        </mask>
        <path fill="#B62542" d="M104.96 231.571l-96.697-27.2C3.377 202.996 0 198.52 0 193.419V.982h119.392v219.577c0 7.57-7.183 13.052-14.432 11.012" mask="url(#b)"/>
        <path fill="#FEFEFE" d="M24.47 158.293l1.823 4.37h-3.63l1.808-4.37zm-2.485 6.07h4.987l1.07 2.637H30l-4.64-11h-1.718L19 167h1.9l1.085-2.636zM40 165.24h-5.996V156H32v11h8zM41 156v11h8v-1.761h-5.996V156z"/>
        <mask id="d" fill="#fff">
            <use xlink:href="#c"/>
        </mask>
        <path fill="#FEFEFE" d="M51 167h2v-11h-2zM63.293 162.662h-3.631l1.807-4.369 1.824 4.37zM56 167h1.9l1.085-2.636h4.986L65.04 167H67l-4.64-11h-1.72L56 167zM69.983 159.175L76.311 167H78v-11h-1.984v7.606L69.868 156H68v11h1.983zM86.625 157.717c1.25 0 2.187.531 3.062 1.32l1.235-1.38c-1.046-.974-2.266-1.657-4.281-1.657-3.313 0-5.641 2.477-5.641 5.5v.03c0 3.055 2.375 5.47 5.563 5.47 2.046 0 3.296-.73 4.437-1.884l-1.234-1.215c-.938.85-1.797 1.367-3.141 1.367-2.094 0-3.61-1.686-3.61-3.769v-.03c0-2.08 1.532-3.752 3.61-3.752M101 165.27h-6.122v-2.953h5.358v-1.73h-5.358v-2.858h6.046V156H93v11h8zM39.94 181.495h-2.88V179H36v6h1.06v-2.528h2.88V185H41v-6h-1.06zM43.075 185h.85v-6h-.85zM48.725 182.547h1.367v1.085c-.329.266-.787.44-1.29.44-1.092 0-1.817-.88-1.817-2.072v-.017c0-1.111.748-2.047 1.733-2.047.678 0 1.084.24 1.495.622l.596-.77c-.55-.507-1.122-.788-2.054-.788-1.61 0-2.755 1.375-2.755 3v.017c0 1.69 1.099 2.983 2.77 2.983.947 0 1.704-.414 2.23-.904v-2.436h-2.275v.887zM56.94 181.495h-2.88V179H53v6h1.06v-2.528h2.88V185H58v-6h-1.06zM61.253 179H60v6h5v-.96h-3.747zM67.075 185h.85v-6h-.85zM74.81 183.15L71.12 179H70v6h1.19v-4.269L74.985 185H76v-6h-1.19zM79.173 182.446h3.349v-.944h-3.349v-1.56h3.779V179H78v6h5v-.943h-3.827zM46.8 84h26.4c4.86 0 8.8-.447 8.8-.999C82 82.448 78.06 82 73.2 82H46.8c-4.859 0-8.8.448-8.8 1.001 0 .552 3.941.999 8.8.999M44.8 91h29.4c5.413 0 9.8-.448 9.8-1s-4.387-1-9.8-1H44.8c-5.411 0-9.8.448-9.8 1s4.389 1 9.8 1M44.8 119h29.4c5.412 0 9.8-.448 9.8-1 0-.553-4.388-1-9.8-1H44.8c-5.412 0-9.8.447-9.8 1 0 .552 4.388 1 9.8 1M82 125c0-.554-4.03-1-9-1H46c-4.97 0-9 .446-9 1 0 .553 4.03 1 9 1h27c4.97 0 9-.447 9-1M79 132c0-.553-3.492-1-7.8-1H47.8c-4.307 0-7.8.447-7.8 1 0 .554 3.493 1 7.8 1h23.4c4.308 0 7.8-.446 7.8-1M76 139c0-.553-2.866-1-6.4-1H50.401c-3.535 0-6.401.447-6.401 1 0 .553 2.866 1 6.401 1H69.6c3.534 0 6.4-.447 6.4-1M44.4 98h31.2c5.742 0 10.4-.448 10.4-1s-4.658-1-10.4-1H44.4c-5.744 0-10.4.448-10.4 1s4.656 1 10.4 1M34 111c0 .553 4.656 1 10.4 1h31.2c5.744 0 10.4-.447 10.4-1 0-.553-4.656-1-10.4-1H44.4c-5.744 0-10.4.447-10.4 1M42.999 105h33c6.075 0 11.001-.448 11.001-1s-4.926-1-11-1H42.999c-6.074 0-10.999.448-10.999 1s4.925 1 10.999 1M50.5 77h19c5.247 0 9.5-.448 9.5-1s-4.253-1-9.5-1h-19c-5.247 0-9.5.448-9.5 1s4.253 1 9.5 1M54.334 70h10.334C70.372 70 75 69.552 75 69s-4.628-1-10.332-1H54.334C48.628 68 44 68.448 44 69s4.628 1 10.334 1M56.334 93C52.837 93 50 93.448 50 94c0 .553 2.837 1 6.334 1h6.332C66.165 95 69 94.553 69 94c0-.552-2.835-1-6.334-1h-6.332zM56.334 100c-4.05 0-7.334.447-7.334.999 0 .553 3.284 1.001 7.334 1.001h7.334c4.05 0 7.332-.448 7.332-1.001 0-.552-3.283-.999-7.332-.999h-7.334zM64 109c4.97 0 9-.447 9-.999 0-.553-4.03-1.001-9-1.001h-9c-4.97 0-9 .448-9 1.001 0 .552 4.03.999 9 .999h9zM55 114c-5.522 0-10 .448-10 1 0 .553 4.478 1 10 1h10c5.522 0 10-.447 10-1 0-.552-4.478-1-10-1H55zM55.333 121c-5.153 0-9.333.447-9.333.999 0 .553 4.18 1.001 9.333 1.001h9.334c5.154 0 9.333-.448 9.333-1.001 0-.552-4.179-.999-9.333-.999h-9.334zM64 130c4.418 0 8-.448 8-1s-3.582-1-8-1h-8c-4.418 0-8 .448-8 1s3.582 1 8 1h8zM63.333 137c3.682 0 6.667-.448 6.667-1 0-.553-2.985-1-6.667-1h-6.666c-3.682 0-6.667.447-6.667 1 0 .552 2.985 1 6.667 1h6.666zM103 175a316.21 316.21 0 0 0-43.5-3 316.21 316.21 0 0 0-43.5 3 450.105 450.105 0 0 1 43.5-2.103c14.69 0 29.2.715 43.5 2.103" mask="url(#d)"/>
    </g>
</svg>
