<svg xmlns="http://www.w3.org/2000/svg" width="21" height="37" viewBox="0 0 21 37">
    <g fill="#000" fill-rule="nonzero">
        <path d="M10.5.5C4.71.5 0 5.25 0 11.09v14.82C0 31.75 4.71 36.5 10.5 36.5S21 31.75 21 25.91V11.09C21 5.25 16.29.5 10.5.5zm8.328 25.39c0 4.635-3.736 8.406-8.328 8.406-4.592 0-8.328-3.771-8.328-8.406V11.11c0-4.635 3.736-8.406 8.328-8.406 4.592 0 8.328 3.771 8.328 8.406v14.78z"/>
        <path d="M10.5 6.5c-.829 0-1.5.475-1.5 1.06v4.88c0 .585.671 1.06 1.5 1.06.828 0 1.5-.475 1.5-1.06V7.56c0-.585-.671-1.06-1.5-1.06z"/>
    </g>
</svg>
