<svg xmlns="http://www.w3.org/2000/svg" xmlns:xlink="http://www.w3.org/1999/xlink" width="61" height="65" viewBox="0 0 61 65">
    <defs>
        <path id="a" d="M.452 1.093h44.692V34.73H.452z"/>
    </defs>
    <g fill="none" fill-rule="evenodd">
        <g transform="translate(15 -1)">
            <mask id="b" fill="#fff">
                <use xlink:href="#a"/>
            </mask>
            <path fill="#B52543" d="M10.927 3.463a2.79 2.79 0 0 0-1.135.245 2.813 2.813 0 0 0-1.478 1.577l-5.336 14.05a2.874 2.874 0 0 0 .054 2.175 2.813 2.813 0 0 0 1.554 1.5l22.289 8.712a2.759 2.759 0 0 0 2.143-.055 2.813 2.813 0 0 0 1.477-1.575l1.254-3.3a1.422 1.422 0 0 1 1.117-.907c.508-.08 1.015.13 1.327.54l3.825 4.994 4.268-11.237-6.138 1.1a1.413 1.413 0 0 1-1.343-.502 1.46 1.46 0 0 1-.227-1.437l1.253-3.303a2.858 2.858 0 0 0-.052-2.175 2.804 2.804 0 0 0-1.553-1.497L11.934 3.655a2.756 2.756 0 0 0-1.007-.192M38.291 34.73c-.436 0-.853-.205-1.122-.558l-3.823-4.992-.67 1.764a5.144 5.144 0 0 1-2.71 2.89c-1.255.564-2.65.6-3.931.098l-22.29-8.71a5.133 5.133 0 0 1-2.847-2.75 5.237 5.237 0 0 1-.099-3.987L6.135 4.434a5.149 5.149 0 0 1 2.71-2.89 5.035 5.035 0 0 1 3.929-.1l22.29 8.713a5.125 5.125 0 0 1 2.85 2.748 5.241 5.241 0 0 1 .096 3.989l-.67 1.768 6.136-1.1a1.414 1.414 0 0 1 1.343.503c.326.4.414.95.23 1.433l-5.434 14.309a1.426 1.426 0 0 1-1.324.923" mask="url(#b)"/>
        </g>
        <path fill="#B52543" d="M43 65c-.553 0-1-.527-1-1.178V36.178c0-.65.447-1.178 1-1.178.553 0 1 .529 1 1.178v27.644c0 .651-.447 1.178-1 1.178M37.817 65H7.635C3.423 65 0 61.626 0 57.48V28.52C0 24.375 3.423 21 7.635 21h5.26c.651 0 1.182.523 1.182 1.165 0 .644-.53 1.165-1.183 1.165h-5.26c-2.907 0-5.269 2.328-5.269 5.19v28.96c0 2.862 2.362 5.19 5.27 5.19h30.182c.654 0 1.183.521 1.183 1.165S38.471 65 37.817 65"/>
        <path fill="#B52543" d="M19.969 41.687h2.714a2.354 2.354 0 0 0 0-4.706H19.97v4.706zm2.714 2.429h-3.927c-.67 0-1.212-.543-1.212-1.215v-7.135c0-.67.542-1.214 1.212-1.214h3.927a4.783 4.783 0 0 1 4.775 4.782 4.783 4.783 0 0 1-4.775 4.782zm-8.258 11.456h3.119v-7.119c0-.67.542-1.214 1.212-1.214h3.927c4.352 0 7.892-3.547 7.892-7.905 0-4.358-3.54-7.906-7.892-7.906h-8.258v24.144zM18.756 58h-5.544A1.215 1.215 0 0 1 12 56.786V30.214c0-.67.544-1.214 1.212-1.214h9.471C28.372 29 33 33.637 33 39.334s-4.628 10.334-10.317 10.334H19.97v7.118c0 .67-.543 1.214-1.213 1.214zM43 16.25a.75.75 0 1 0 .002 1.502A.75.75 0 0 0 43 16.25M43 20a3 3 0 0 1 0-6 3 3 0 0 1 0 6M26.962 11a.883.883 0 0 1-.373-.086l-.925-.44c-.535-.255-.8-.995-.594-1.654.205-.66.805-.988 1.34-.734l.926.44c.534.253.801.993.594 1.653-.158.508-.552.821-.968.821M31.961 14a.884.884 0 0 1-.373-.086l-.923-.438c-.535-.256-.802-.996-.595-1.655.206-.661.806-.989 1.342-.735l.923.438c.535.254.802.996.595 1.655-.158.508-.552.821-.969.821"/>
    </g>
</svg>
