<svg xmlns="http://www.w3.org/2000/svg" xmlns:xlink="http://www.w3.org/1999/xlink" width="41" height="55" viewBox="0 0 41 55">
    <defs>
        <path id="a" d="M.633.206h12.351v18.793H.634z"/>
        <path id="c" d="M1.353 1.14H15.32v9.48H1.353z"/>
        <path id="e" d="M1.35.614h7.633v8.327H1.35z"/>
    </defs>
    <g fill="none" fill-rule="evenodd">
        <path fill="#B62542" d="M.818 55A.807.807 0 0 1 0 54.205v-8.374c0-2.978 1.823-5.648 4.645-6.808l7.217-2.96a.828.828 0 0 1 1.074.423.789.789 0 0 1-.437 1.042l-7.216 2.96c-2.216.91-3.647 3.007-3.647 5.343v8.374A.807.807 0 0 1 .818 55"/>
        <g transform="translate(28 36)">
            <mask id="b" fill="#fff">
                <use xlink:href="#a"/>
            </mask>
            <path fill="#B62542" d="M12.206 19a.782.782 0 0 1-.777-.787V9.931c0-2.311-1.36-4.385-3.464-5.284L1.108 1.718A.792.792 0 0 1 .695.686.772.772 0 0 1 1.713.268l6.857 2.93c2.683 1.147 4.414 3.789 4.414 6.733v8.282a.782.782 0 0 1-.778.786" mask="url(#b)"/>
        </g>
        <path fill="#B62542" d="M20.5 34a5.412 5.412 0 0 1-2.32-.524l-4.87-2.304c-2.011-.95-3.31-3.057-3.31-5.366V13.825c0-.456.352-.825.789-.825.435 0 .788.37.788.825v11.981c0 1.662.935 3.18 2.382 3.863l4.87 2.304a3.902 3.902 0 0 0 3.342 0l4.87-2.304c1.447-.683 2.382-2.2 2.382-3.863V13.825c0-.456.353-.825.788-.825.437 0 .789.37.789.825v11.981c0 2.309-1.299 4.415-3.31 5.366l-4.87 2.304A5.412 5.412 0 0 1 20.5 34M30.211 10H10.79C10.352 10 10 9.552 10 9s.352-1 .789-1H30.21c.437 0 .789.448.789 1s-.352 1-.789 1"/>
        <g transform="translate(6 -1)">
            <mask id="d" fill="#fff">
                <use xlink:href="#c"/>
            </mask>
            <path fill="#B62542" d="M4.9 10.62a.776.776 0 0 1-.658-.371L1.477 5.812a.828.828 0 0 1-.072-.728.784.784 0 0 1 .527-.489l12.401-3.429a.785.785 0 0 1 .96.57.812.812 0 0 1-.552.99L3.37 5.87l2.187 3.508a.82.82 0 0 1-.234 1.115.766.766 0 0 1-.423.129" mask="url(#d)"/>
        </g>
        <path fill="#B62542" d="M30.444 10a.791.791 0 0 1-.424-.122.754.754 0 0 1-.235-1.058l2.19-3.331L20.58 2.506a.765.765 0 0 1-.554-.94.795.795 0 0 1 .962-.541L33.42 4.28c.241.063.44.235.528.464.09.23.063.484-.071.69l-2.773 4.213a.785.785 0 0 1-.659.353"/>
        <path fill="#B62542" d="M20.5 14C15.41 14 10 12.203 10 8.874c0-.483.353-.874.789-.874.436 0 .788.39.788.874 0 1.411 3.396 3.38 8.924 3.38 5.527 0 8.922-1.969 8.922-3.38 0-.483.353-.874.788-.874.437 0 .789.39.789.874C31 12.203 25.591 14 20.5 14M20.5 7A1.5 1.5 0 1 1 22 5.499C22 6.327 21.327 7 20.5 7M11.758 37a.71.71 0 0 1-.44-.154c-.341-.263-.42-.78-.178-1.153l3.484-5.345c.242-.372.717-.46 1.057-.195.341.264.421.78.179 1.153l-3.485 5.347a.736.736 0 0 1-.617.347M29.242 37a.734.734 0 0 1-.617-.347l-3.485-5.347c-.242-.372-.162-.889.179-1.153.34-.265.813-.177 1.057.195l3.484 5.345c.242.374.163.89-.178 1.153a.71.71 0 0 1-.44.154M17.903 39L20 41.1l2.096-2.1-2.096-2.099L17.903 39zM20 43a.788.788 0 0 1-.558-.23l-3.212-3.212a.788.788 0 0 1 0-1.115l3.212-3.212a.786.786 0 0 1 1.113 0l3.213 3.212a.788.788 0 0 1 0 1.115l-3.213 3.212A.78.78 0 0 1 20 43z"/>
        <path fill="#B62542" d="M17.751 55a.692.692 0 0 1-.171-.02c-.404-.1-.655-.533-.56-.963l2.497-11.397c.094-.432.496-.702.902-.598.405.1.656.532.561.964l-2.499 11.396a.76.76 0 0 1-.73.618"/>
        <path fill="#B62542" d="M23.248 55a.761.761 0 0 1-.73-.619L20.02 42.985c-.094-.433.157-.863.56-.963.408-.103.809.167.904.598l2.496 11.396c.095.431-.156.862-.56.963a.692.692 0 0 1-.172.021M17.225 40a.686.686 0 0 1-.35-.1l-5.453-3.212c-.381-.226-.53-.763-.338-1.203.196-.438.662-.612 1.043-.386l5.45 3.213c.382.225.533.76.337 1.2-.135.31-.408.488-.689.488M23.775 40c-.282 0-.554-.177-.69-.488-.195-.44-.045-.975.338-1.2l5.45-3.213c.38-.226.847-.052 1.043.386.193.44.043.977-.338 1.203L24.126 39.9a.69.69 0 0 1-.351.1"/>
        <g transform="translate(32 45)">
            <mask id="f" fill="#fff">
                <use xlink:href="#e"/>
            </mask>
            <path fill="#B62542" d="M2.963 5.997l2.204 1.276 2.202-1.276V2.153H2.963v3.844zM5.167 8.94a.836.836 0 0 1-.422-.114L1.736 7.085a.76.76 0 0 1-.387-.657V1.384c0-.426.362-.77.807-.77h6.02c.445 0 .808.344.808.77v5.044a.765.765 0 0 1-.388.657l-3.01 1.742a.83.83 0 0 1-.42.114z" mask="url(#f)"/>
        </g>
    </g>
</svg>
