<svg xmlns="http://www.w3.org/2000/svg" width="54" height="51" viewBox="0 0 54 51">
    <g fill="none" fill-rule="evenodd" stroke="#B52543" stroke-linecap="round" stroke-linejoin="round" stroke-width="1.44">
        <path d="M20 1a6 6 0 1 1 0 12 6 6 0 0 1 0-12zM46 31a6 6 0 1 1 0 12 6 6 0 0 1 0-12z"/>
        <path d="M2.748 34.408l29.79-2.398c1.724-.14 3.196 1.157 3.647 2.821l4.335 10.46h10.182c1.265 0 2.298 1.059 2.298 2.354C53 48.941 51.967 50 50.702 50H39.294c-1.618 0-2.218-.972-2.581-1.846l-2.528-6.1H3.332C2.05 42.054 1 40.98 1 39.666V36.2c0-.985.789-1.714 1.748-1.792zM9 33l3.223-15.634C12.485 16.093 13.287 15 14.585 15H24.76c1.054 0 2.694.925 3.082 1.95l4.01 10.606a2.29 2.29 0 0 1-1.323 2.946h-.002a2.283 2.283 0 0 1-2.94-1.327L25.025 22.4l-3.106 9.7M2 47h30"/>
    </g>
</svg>
