<svg xmlns="http://www.w3.org/2000/svg" width="53" height="50" viewBox="0 0 53 50">
    <path fill="none" fill-rule="evenodd" stroke="#B52543" stroke-linecap="round" stroke-linejoin="round" stroke-width="1.543" d="M52 45c-1.057 2.348-3.579 4-6.522 4-2.774-.001-5.174-1.47-6.324-3.604C38.001 47.53 35.601 49 32.827 49c-2.775-.001-5.174-1.47-6.327-3.604C25.35 47.53 22.948 49 20.174 49c-2.773-.001-5.175-1.47-6.325-3.604C12.697 47.53 10.297 49 7.522 49 4.58 48.999 2.059 47.348 1 45m51-8c-1.057 2.349-3.579 4-6.522 4-2.774 0-5.174-1.47-6.324-3.605C38.001 39.53 35.601 41 32.827 41c-2.775 0-5.174-1.47-6.327-3.605C25.35 39.53 22.948 41 20.174 41c-2.773 0-5.175-1.47-6.325-3.605C12.697 39.53 10.297 41 7.522 41 4.58 41 2.059 39.349 1 37m42-7.5H22m21-11H22M44 35V4.646C44 2.64 45.574 1 47.5 1S51 2.64 51 4.646M22 35V4.646C22 2.64 23.574 1 25.5 1 27.424 1 29 2.64 29 4.646"/>
</svg>
