<svg xmlns="http://www.w3.org/2000/svg" width="42" height="53" viewBox="0 0 42 53">
    <g fill="none" fill-rule="evenodd" stroke="#B52543" stroke-linecap="round" stroke-linejoin="round" stroke-width="1.44">
        <path d="M16.882 28.017c.114 1.24-.182 2.888-1.447 4.22-.133.138-.278.27-.435.396L20.77 45 27 32.778a4.44 4.44 0 0 1-.649-.546C25.24 31.086 25.007 29.289 25.11 28M40.294 52C42.476 40.864 40.018 36.391 27 33M15 33l-4.884 1.808C1.31 38.115-.462 41.625 2.034 52M34 47.5h-7"/>
        <path d="M17.88 10.674c2.233 0 7.561-.394 9.082-2.674C28.653 9.766 30 15.132 30 17.945 30 23.288 26.258 29 21.54 29 16.824 29 13 24.668 13 19.325c0-5.344.163-8.651 4.88-8.651z"/>
        <path d="M35.396 36c3.01-3.529.86-7.287.86-12.901 0-10.665-.272-22.787-15.057-22.069C6.416 1.75 6 9.678 6 20.344c0 6.7.115 11.797 2.28 14.66"/>
    </g>
</svg>
